<svg width="258" height="83" viewBox="0 0 258 83" fill="none" xmlns="http://www.w3.org/2000/svg">
<path d="M21.758 52.133C21.3461 52.5457 21.115 53.1051 21.1156 53.6881C21.1161 54.2712 21.3483 54.8301 21.7609 55.242C22.1736 55.6539 22.733 55.885 23.316 55.8844C23.8991 55.8839 24.458 55.6517 24.8699 55.2391L21.758 52.133ZM31.6856 48.4146C31.8954 48.2117 32.0627 47.9692 32.1778 47.701C32.2928 47.4328 32.3533 47.1444 32.3557 46.8526C32.3581 46.5608 32.3024 46.2714 32.1918 46.0014C32.0811 45.7314 31.9178 45.4861 31.7114 45.2798C31.5049 45.0736 31.2595 44.9105 30.9894 44.8001C30.7192 44.6898 30.4298 44.6343 30.138 44.637C29.8462 44.6396 29.5578 44.7004 29.2898 44.8157C29.0217 44.931 28.7793 45.0985 28.5767 45.3085L31.6856 48.4146ZM42.255 30.2589L46.7705 34.7802L49.8794 31.6742L45.3669 27.1528L42.255 30.2589ZM34.7419 48.3677L28.7056 42.3255L25.5995 45.4316L31.63 51.4679L34.7419 48.3677ZM45.3493 41.3644L42.5392 42.4193L44.0864 46.5334L46.8935 45.4785L45.3493 41.3644ZM34.654 34.493L35.6737 31.7093L31.545 30.1973L30.5282 32.9781L34.654 34.493ZM29.5319 39.2107C30.493 38.947 31.5186 38.6979 32.3654 38.0884L29.7986 34.5223C29.74 34.5634 29.6462 34.622 28.3627 34.9765L29.5319 39.2107ZM30.5282 32.981C30.0711 34.2293 30.0007 34.3231 29.9568 34.3758L33.3031 37.227C33.9771 36.4329 34.3111 35.4307 34.654 34.493L30.5282 32.981ZM32.3654 38.0884C32.7112 37.8384 33.0238 37.5512 33.3031 37.227L29.9568 34.3758C29.9103 34.431 29.8571 34.4802 29.7986 34.5223L32.3654 38.0884ZM42.5392 42.4252C41.6074 42.7739 40.6111 43.1138 39.8229 43.7936L42.7004 47.1165C42.7531 47.0725 42.8469 47.0051 44.0864 46.5363L42.5392 42.4252ZM42.1055 48.7047C42.4572 47.4271 42.5187 47.3275 42.5597 47.2718L38.9878 44.7108C38.3812 45.5576 38.1321 46.5773 37.8684 47.5384L42.1055 48.7047ZM39.8229 43.7936C39.5094 44.0654 39.2291 44.3733 38.9878 44.7108L42.5597 47.2718C42.6012 47.2144 42.6464 47.1623 42.7004 47.1165L39.8229 43.7936ZM28.7085 42.3314C27.7415 41.3644 27.1555 40.7696 26.7863 40.3096C26.4141 39.8407 26.5636 39.8583 26.5636 40.1308L22.1682 40.1601C22.177 41.3879 22.7894 42.3461 23.3491 43.0464C23.9059 43.7496 24.7117 44.5467 25.5995 45.4375L28.7085 42.3314ZM28.3627 34.9765C27.1526 35.3106 26.0596 35.6065 25.2245 35.9435C24.3923 36.2746 23.3872 36.8021 22.7719 37.8687L26.5812 40.0634C26.4434 40.3008 26.3087 40.2451 26.8625 40.0224C27.4104 39.8026 28.2133 39.577 29.529 39.2136L28.3627 34.9765ZM26.5636 40.1308C26.5636 40.1074 26.5694 40.0849 26.5812 40.0634L22.7719 37.8687C22.3724 38.5639 22.1642 39.3583 22.1682 40.1601L26.5636 40.1308ZM31.6329 51.4767C32.5266 52.3704 33.3295 53.1791 34.0357 53.7447C34.7389 54.3043 35.7059 54.9226 36.9425 54.9255L36.9513 50.5302C37.2267 50.5302 37.2443 50.6767 36.7754 50.3046C36.3095 49.9354 35.7147 49.3405 34.7419 48.3677L31.6329 51.4767ZM37.8684 47.5384C37.5051 48.8629 37.2765 49.6775 37.0567 50.2313C36.8311 50.7881 36.7725 50.6474 37.0128 50.5097L39.19 54.3307C40.2653 53.7154 40.8016 52.7044 41.1356 51.8693C41.4726 51.0283 41.7715 49.9266 42.1055 48.7047L37.8684 47.5384ZM36.9425 54.9255C37.7336 54.9255 38.5072 54.7204 39.19 54.3307L37.0128 50.5097C36.9943 50.5211 36.973 50.5302 36.9513 50.5302L36.9425 54.9255ZM46.7705 34.7802C48.3528 36.3625 49.3608 37.3852 49.9644 38.1969C50.2487 38.5807 50.36 38.8122 50.401 38.9353L50.4186 39.0115V39.0203L54.7143 39.9491C55.0894 38.2027 54.3598 36.7464 53.4953 35.5802C52.6544 34.4432 51.3621 33.1598 49.8794 31.6771L46.7705 34.7802ZM46.8935 45.4785C48.8568 44.743 50.5622 44.1101 51.7987 43.4244C53.0675 42.7211 54.3363 41.6956 54.7143 39.9491L50.4186 39.0203L50.4157 39.029L50.3659 39.0876C50.1569 39.2854 49.9199 39.4512 49.6626 39.5799C48.7835 40.0722 47.4444 40.5762 45.3493 41.3644L46.8935 45.4785ZM45.364 27.1528C43.8725 25.6584 42.5802 24.3603 41.4374 23.5135C40.2683 22.6432 38.8032 21.9077 37.048 22.2945L37.9944 26.5814L38.0179 26.5844L38.0765 26.6019C38.3449 26.7108 38.5957 26.859 38.8207 27.0415C39.6353 27.648 40.6609 28.6648 42.255 30.2647L45.364 27.1528ZM35.6707 31.7123C36.4502 29.5937 36.9513 28.2429 37.4377 27.3491C37.5754 27.0713 37.7564 26.8171 37.9739 26.5961L37.9886 26.5873H37.9944L37.048 22.2945C35.2927 22.6813 34.273 23.9647 33.5756 25.2482C32.8987 26.4964 32.2717 28.2194 31.545 30.2032L35.6707 31.7123ZM24.8699 55.2449L31.6856 48.4146L28.5767 45.3115L21.758 52.133L24.8699 55.2449Z" fill="#1E1E1E"/>
<path fill-rule="evenodd" clip-rule="evenodd" d="M36.4964 13.3954C31.74 13.3875 27.0663 14.6382 22.9496 17.0205C21.899 17.6284 20.5546 17.2696 19.9467 16.2191C19.3388 15.1686 19.6976 13.8241 20.7481 13.2162C25.5355 10.4458 30.9706 8.99124 36.5018 9.00004C53.8984 9.00102 68 23.1032 68 40.5C68 57.8974 53.8974 72 36.5 72C19.1026 72 5 57.8974 5 40.5C5 34.7677 6.53394 29.3814 9.21637 24.7478C9.82447 23.6974 11.169 23.3388 12.2194 23.9469C13.2698 24.555 13.6284 25.8995 13.0203 26.9499C10.7155 30.9312 9.39535 35.5604 9.39535 40.5C9.39535 55.4699 21.5301 67.6046 36.5 67.6046C51.4699 67.6046 63.6046 55.4699 63.6046 40.5C63.6046 25.5301 51.4699 13.3954 36.5 13.3954L36.4964 13.3954Z" fill="#1E1E1E"/>
<path d="M101.729 10.745C102.9 10.1594 104.126 9.86663 105.407 9.86663C106.725 9.86663 107.786 10.2692 108.592 11.0745C109.433 11.8797 109.854 12.8496 109.854 13.9842C109.854 15.1188 109.69 17.626 109.36 21.5056C109.031 25.3487 108.866 28.4049 108.866 30.6741C108.866 37.9576 109.196 44.015 109.854 48.8463C108.683 49.2855 107.365 49.5051 105.901 49.5051C104.474 49.5051 103.358 49.2672 102.553 48.7914C100.21 47.4372 94.7383 38.8726 86.1371 23.0978C85.9907 24.5252 85.9175 27.8741 85.9175 33.1446C85.9175 38.3785 86.3201 43.5026 87.1253 48.5169C85.9907 48.9561 84.7646 49.1757 83.447 49.1757C82.1294 49.1757 81.0496 48.7548 80.2078 47.913C79.4026 47.0712 79 46.0647 79 44.8934C79 43.7222 79.1647 41.27 79.4941 37.5367C79.8601 33.8035 80.0431 30.9852 80.0431 29.082C80.0431 21.7984 79.6954 15.7593 79 10.9647C80.0248 10.4522 81.5254 10.196 83.5019 10.196C85.4783 10.196 86.8691 10.983 87.6744 12.5568C93.0912 23.5736 98.2702 32.9067 103.211 40.5563C103.102 33.5289 103.047 29.814 103.047 29.4114C103.047 22.5671 102.607 16.3449 101.729 10.745Z" fill="#1E1E1E"/>
<path d="M120.067 36.7132C120.067 39.3484 120.488 41.4347 121.329 42.9719C122.171 44.4725 123.58 45.2229 125.557 45.2229C127.533 45.2229 129.071 44.564 130.169 43.2464C131.303 41.8922 131.87 40.2635 131.87 38.3602C133.115 38.3602 134.195 38.6713 135.11 39.2935C136.025 39.9158 136.482 40.7759 136.482 41.8739C136.482 44.1431 135.274 46.0464 132.859 47.5836C130.443 49.0842 127.899 49.8345 125.227 49.8345C121.055 49.8345 118.035 48.7182 116.169 46.4856C114.302 44.2163 113.369 40.8674 113.369 36.4387C113.369 32.01 114.613 28.2951 117.102 25.2938C119.628 22.256 122.977 20.737 127.149 20.737C130.004 20.737 132.291 21.3958 134.012 22.7135C135.768 23.9945 136.647 26.0075 136.647 28.7526C136.647 31.461 135.402 33.5106 132.914 34.9015C130.461 36.2557 127.46 36.9328 123.91 36.9328C122.665 36.9328 121.384 36.8596 120.067 36.7132ZM120.122 32.376C121.22 32.5956 122.373 32.7054 123.58 32.7054C126.216 32.7054 128.43 32.2113 130.223 31.2231C130.443 30.3447 130.553 29.6493 130.553 29.1369C130.553 27.8558 130.095 26.8859 129.18 26.2271C128.265 25.5683 127.003 25.2389 125.392 25.2389C123.818 25.2389 122.391 25.7513 121.11 26.7761C120.451 28.6794 120.122 30.546 120.122 32.376Z" fill="#1E1E1E"/>
<path d="M166.915 23.3174C165.927 27.5264 165.433 31.7538 165.433 35.9995C165.433 40.2086 165.909 44.381 166.86 48.5169C165.543 48.9561 164.189 49.1757 162.798 49.1757C161.407 49.1757 160.437 48.7731 159.888 47.9679C159.339 47.1261 159.064 45.9366 159.064 44.3993C159.064 42.8255 159.302 40.6844 159.778 37.9759C157.18 43.5392 154.672 47.0529 152.257 48.5169C151.159 49.1757 150.024 49.5051 148.853 49.5051C146.071 49.5051 143.912 48.4803 142.375 46.4307C140.837 44.3444 140.069 41.7641 140.069 38.6896C140.069 34.0048 141.368 29.9055 143.967 26.3918C146.565 22.8416 149.933 21.0664 154.068 21.0664C158.241 21.0664 162.523 21.8167 166.915 23.3174ZM159.723 26.6114C157.783 26.0258 156.136 25.733 154.782 25.733C152.037 25.733 149.988 26.3369 148.633 27.5447C147.389 30.6192 146.767 33.7486 146.767 36.9328C146.767 38.6164 147.023 40.3184 147.535 42.0386C148.084 43.7588 148.908 44.6189 150.006 44.6189C151.287 44.6189 152.934 42.734 154.947 38.9641C156.96 35.1943 158.552 31.0767 159.723 26.6114Z" fill="#1E1E1E"/>
<path d="M179.813 48.5169C178.678 48.9561 177.47 49.1757 176.189 49.1757C174.908 49.1757 173.865 48.8829 173.06 48.2973C172.291 47.6751 171.907 46.8333 171.907 45.7719C171.907 44.6738 172.072 42.6974 172.401 39.8426C172.731 36.9877 172.895 34.2244 172.895 31.5525C172.895 28.8441 172.474 25.6781 171.632 22.0546C172.804 21.6154 173.957 21.3958 175.091 21.3958C176.226 21.3958 177.196 21.7801 178.001 22.5488C178.843 23.3174 179.264 24.3422 179.264 25.6232C179.264 26.282 179.154 27.2702 178.934 28.5879C178.715 29.8689 178.587 30.8388 178.55 31.4976C179.977 28.2402 181.661 25.6964 183.601 23.8664C185.577 21.9997 187.535 21.0664 189.475 21.0664C190.83 21.0664 191.909 21.5422 192.714 22.4939C193.52 23.4455 193.922 24.6533 193.922 26.1173C193.922 27.5447 193.556 28.716 192.824 29.631C192.092 30.5094 191.177 30.9486 190.079 30.9486C189.018 30.9486 188.158 30.8388 187.499 30.6192C187.609 30.18 187.664 29.7774 187.664 29.4114C187.664 27.9107 187.133 27.1604 186.071 27.1604C184.461 27.1604 182.942 28.7892 181.515 32.0466C180.124 35.2675 179.191 38.287 178.715 41.1053C178.898 43.8503 179.264 46.3209 179.813 48.5169Z" fill="#1E1E1E"/>
<path d="M196.834 47.2542C197.676 39.9707 198.096 34.9564 198.096 32.2113C198.096 24.5252 197.785 16.6744 197.163 8.65881C198.261 8.2196 199.432 8 200.677 8C201.921 8 202.983 8.42091 203.861 9.26272C204.739 10.1045 205.179 11.166 205.179 12.447C205.179 14.643 204.959 18.1567 204.52 22.988C204.081 27.7826 203.806 30.9852 203.696 32.5956C206.698 26.9591 209.681 23.4455 212.645 22.0546C213.963 21.3958 215.372 21.0664 216.873 21.0664C218.922 21.0664 220.496 22.1461 221.594 24.3056C222.729 26.465 223.296 29.1003 223.296 32.2113C223.296 37.189 221.942 41.3249 219.233 44.6189C216.525 47.8764 213.011 49.5051 208.692 49.5051C204.41 49.5051 200.457 48.7548 196.834 47.2542ZM203.422 43.7954C204.886 44.3444 206.624 44.6189 208.637 44.6189C210.65 44.6189 212.389 44.2346 213.853 43.466C215.646 40.3916 216.543 37.0426 216.543 33.4191C216.543 31.6989 216.342 30.0336 215.939 28.4232C215.537 26.7761 214.896 25.9526 214.018 25.9526C212.664 25.9526 210.888 27.8192 208.692 31.5525C206.496 35.2858 204.739 39.3667 203.422 43.7954Z" fill="#1E1E1E"/>
<path d="M228.427 40.0622L228.976 32.1564C228.976 28.6062 228.463 25.2389 227.438 22.0546C228.463 21.6154 229.726 21.3958 231.227 21.3958C234.155 21.3958 235.619 23.0246 235.619 26.282C235.619 27.746 235.417 29.814 235.015 32.4858C234.612 35.1577 234.411 37.006 234.411 38.0308C234.411 39.019 234.429 39.7511 234.466 40.2269C234.502 40.6661 234.594 41.1968 234.74 41.819C234.96 43.0634 235.674 43.6856 236.881 43.6856C238.126 43.6856 239.443 42.7157 240.834 40.7759C242.262 38.7994 243.396 36.6217 244.238 34.2427C245.117 31.8636 245.556 29.9787 245.556 28.5879C245.373 25.6964 245.062 23.5187 244.622 22.0546C245.794 21.6154 246.983 21.3958 248.191 21.3958C249.435 21.3958 250.46 21.7801 251.265 22.5488C252.107 23.3174 252.528 24.3422 252.528 25.6232C252.528 45.6072 246.868 65.5939 239.548 69.5833C237.901 70.4618 236.034 70.901 233.948 70.901C231.862 70.901 230.032 70.3519 228.458 69.2539C226.921 68.1559 224.152 66.6187 224.152 64.6423C224.152 63.3246 226.646 62.2083 227.635 61.2933C228.623 60.4149 229.794 59.9757 231.148 59.9757C231.441 59.9757 231.807 60.0123 232.246 60.0855C232.136 60.5613 232.081 60.9822 232.081 61.3482C232.081 64.5691 233.198 66.1795 235.43 66.1795C236.785 66.1795 238.011 65.4475 239.109 63.9834C240.207 62.5194 241.085 60.726 241.744 58.6031C243.025 54.2843 245.666 42.368 245.666 38.8543C244.568 41.819 243.067 44.2163 241.164 46.0464C239.297 47.8398 237.266 48.7365 235.07 48.7365C230.641 48.7365 228.427 45.8451 228.427 40.0622Z" fill="#1E1E1E"/>
<path d="M83.296 71.1758C82.3253 71.1758 81.5306 70.9891 80.912 70.6158C80.304 70.2318 79.8506 69.7144 79.552 69.0638C79.2533 68.4131 79.088 67.6718 79.056 66.8398C79.0453 66.4024 79.04 65.9331 79.04 65.4318C79.04 64.9304 79.0453 64.4504 79.056 63.9918C79.088 63.1598 79.2533 62.4184 79.552 61.7678C79.8506 61.1064 80.304 60.5891 80.912 60.2158C81.5306 59.8424 82.3253 59.6558 83.296 59.6558C84.0533 59.6558 84.6986 59.7624 85.232 59.9758C85.7653 60.1891 86.1973 60.4718 86.528 60.8238C86.8693 61.1651 87.12 61.5384 87.28 61.9438C87.4506 62.3384 87.5466 62.7278 87.568 63.1118C87.5786 63.2078 87.5466 63.2878 87.472 63.3518C87.408 63.4051 87.328 63.4318 87.232 63.4318H86.912C86.8266 63.4318 86.752 63.4104 86.688 63.3678C86.624 63.3144 86.5813 63.2238 86.56 63.0958C86.3573 62.1464 85.9733 61.4958 85.408 61.1438C84.8533 60.7918 84.1493 60.6158 83.296 60.6158C82.3253 60.6158 81.552 60.8931 80.976 61.4478C80.4106 61.9918 80.1066 62.8664 80.064 64.0718C80.032 64.9464 80.032 65.8424 80.064 66.7598C80.1066 67.9651 80.4106 68.8451 80.976 69.3998C81.552 69.9438 82.3253 70.2158 83.296 70.2158C84.1493 70.2158 84.8533 70.0398 85.408 69.6878C85.9733 69.3358 86.3573 68.6851 86.56 67.7358C86.5813 67.6078 86.624 67.5224 86.688 67.4798C86.752 67.4264 86.8266 67.3998 86.912 67.3998H87.232C87.328 67.3998 87.408 67.4318 87.472 67.4958C87.5466 67.5491 87.5786 67.6238 87.568 67.7198C87.5466 68.1038 87.4506 68.4984 87.28 68.9038C87.12 69.2984 86.8693 69.6718 86.528 70.0238C86.1973 70.3651 85.7653 70.6424 85.232 70.8558C84.6986 71.0691 84.0533 71.1758 83.296 71.1758Z" fill="#1E1E1E"/>
<path d="M90.0859 71.0158C89.9792 71.0158 89.8939 70.9838 89.8299 70.9198C89.7659 70.8558 89.7339 70.7704 89.7339 70.6638V60.0078C89.7339 59.9011 89.7659 59.8158 89.8299 59.7518C89.8939 59.6878 89.9792 59.6558 90.0859 59.6558H90.3579C90.4645 59.6558 90.5499 59.6878 90.6139 59.7518C90.6779 59.8158 90.7099 59.9011 90.7099 60.0078V70.6638C90.7099 70.7704 90.6779 70.8558 90.6139 70.9198C90.5499 70.9838 90.4645 71.0158 90.3579 71.0158H90.0859Z" fill="#1E1E1E"/>
<path d="M96.4316 71.1758C95.7063 71.1758 95.1036 71.0211 94.6236 70.7118C94.1543 70.3918 93.8023 69.9598 93.5676 69.4158C93.3436 68.8718 93.2316 68.2638 93.2316 67.5918V63.0478C93.2316 62.9411 93.2636 62.8558 93.3276 62.7918C93.3916 62.7278 93.4769 62.6958 93.5836 62.6958H93.8556C93.9623 62.6958 94.0476 62.7278 94.1116 62.7918C94.1756 62.8558 94.2076 62.9411 94.2076 63.0478V67.5118C94.2076 69.3358 95.0023 70.2478 96.5916 70.2478C97.3489 70.2478 97.9569 70.0078 98.4156 69.5278C98.8743 69.0371 99.1036 68.3651 99.1036 67.5118V63.0478C99.1036 62.9411 99.1356 62.8558 99.1996 62.7918C99.2636 62.7278 99.3489 62.6958 99.4556 62.6958H99.7276C99.8343 62.6958 99.9196 62.7278 99.9836 62.7918C100.048 62.8558 100.08 62.9411 100.08 63.0478V70.6638C100.08 70.7704 100.048 70.8558 99.9836 70.9198C99.9196 70.9838 99.8343 71.0158 99.7276 71.0158H99.4556C99.3489 71.0158 99.2636 70.9838 99.1996 70.9198C99.1356 70.8558 99.1036 70.7704 99.1036 70.6638V69.9118C98.8156 70.2851 98.4689 70.5891 98.0636 70.8238C97.6689 71.0584 97.1249 71.1758 96.4316 71.1758Z" fill="#1E1E1E"/>
<path d="M106.351 71.1758C105.69 71.1758 105.14 71.0584 104.703 70.8238C104.276 70.5784 103.93 70.2744 103.663 69.9118V70.6638C103.663 70.7704 103.631 70.8558 103.567 70.9198C103.503 70.9838 103.418 71.0158 103.311 71.0158H103.039C102.932 71.0158 102.847 70.9838 102.783 70.9198C102.719 70.8558 102.687 70.7704 102.687 70.6638V60.0078C102.687 59.9011 102.719 59.8158 102.783 59.7518C102.847 59.6878 102.932 59.6558 103.039 59.6558H103.311C103.418 59.6558 103.503 59.6878 103.567 59.7518C103.631 59.8158 103.663 59.9011 103.663 60.0078V63.7998C103.93 63.4478 104.276 63.1491 104.703 62.9038C105.14 62.6584 105.69 62.5358 106.351 62.5358C106.98 62.5358 107.508 62.6478 107.935 62.8718C108.362 63.0958 108.708 63.3944 108.975 63.7678C109.242 64.1411 109.439 64.5571 109.567 65.0158C109.695 65.4744 109.764 65.9384 109.775 66.4078C109.786 66.5678 109.791 66.7171 109.791 66.8558C109.791 66.9944 109.786 67.1438 109.775 67.3038C109.764 67.7731 109.695 68.2371 109.567 68.6958C109.439 69.1544 109.242 69.5704 108.975 69.9438C108.708 70.3171 108.362 70.6158 107.935 70.8398C107.508 71.0638 106.98 71.1758 106.351 71.1758ZM106.255 70.2478C106.884 70.2478 107.38 70.1091 107.743 69.8318C108.106 69.5544 108.367 69.1918 108.527 68.7438C108.687 68.2958 108.778 67.8158 108.799 67.3038C108.81 67.0051 108.81 66.7064 108.799 66.4078C108.778 65.8958 108.687 65.4158 108.527 64.9678C108.367 64.5198 108.106 64.1571 107.743 63.8798C107.38 63.6024 106.884 63.4638 106.255 63.4638C105.668 63.4638 105.183 63.6024 104.799 63.8798C104.426 64.1571 104.143 64.5038 103.951 64.9198C103.77 65.3358 103.674 65.7571 103.663 66.1838C103.652 66.3438 103.647 66.5518 103.647 66.8078C103.647 67.0638 103.652 67.2718 103.663 67.4318C103.684 67.8691 103.78 68.3064 103.951 68.7438C104.132 69.1704 104.41 69.5278 104.783 69.8158C105.156 70.1038 105.647 70.2478 106.255 70.2478Z" fill="#1E1E1E"/>
<path d="M115.04 71.1758C114.006 71.1758 113.184 70.8398 112.576 70.1678C111.968 69.4851 111.622 68.5944 111.536 67.4958C111.526 67.3358 111.52 67.1224 111.52 66.8558C111.52 66.5891 111.526 66.3758 111.536 66.2158C111.59 65.4904 111.76 64.8504 112.048 64.2958C112.336 63.7411 112.731 63.3091 113.232 62.9998C113.744 62.6904 114.347 62.5358 115.04 62.5358C115.787 62.5358 116.422 62.7011 116.944 63.0318C117.467 63.3624 117.867 63.8371 118.144 64.4558C118.432 65.0744 118.576 65.8104 118.576 66.6638V66.9038C118.576 67.0104 118.539 67.0958 118.464 67.1598C118.4 67.2238 118.315 67.2558 118.208 67.2558H112.512C112.512 67.2558 112.512 67.2771 112.512 67.3198C112.512 67.3624 112.512 67.3944 112.512 67.4158C112.534 67.8958 112.646 68.3544 112.848 68.7918C113.051 69.2184 113.339 69.5704 113.712 69.8478C114.086 70.1144 114.528 70.2478 115.04 70.2478C115.499 70.2478 115.878 70.1784 116.176 70.0398C116.486 69.9011 116.731 69.7518 116.912 69.5918C117.094 69.4211 117.211 69.2931 117.264 69.2078C117.36 69.0691 117.435 68.9891 117.488 68.9678C117.542 68.9358 117.627 68.9198 117.744 68.9198H118C118.096 68.9198 118.176 68.9518 118.24 69.0158C118.315 69.0691 118.347 69.1438 118.336 69.2398C118.326 69.3891 118.24 69.5758 118.08 69.7998C117.931 70.0131 117.712 70.2264 117.424 70.4398C117.147 70.6531 116.806 70.8291 116.4 70.9678C115.995 71.1064 115.542 71.1758 115.04 71.1758ZM112.512 66.3598H117.6V66.2958C117.6 65.7624 117.499 65.2824 117.296 64.8558C117.094 64.4291 116.8 64.0931 116.416 63.8478C116.032 63.5918 115.574 63.4638 115.04 63.4638C114.507 63.4638 114.048 63.5918 113.664 63.8478C113.291 64.0931 113.003 64.4291 112.8 64.8558C112.608 65.2824 112.512 65.7624 112.512 66.2958V66.3598Z" fill="#1E1E1E"/>
<path d="M126.82 71.1758C126.201 71.1758 125.673 71.0638 125.236 70.8398C124.809 70.6158 124.462 70.3171 124.196 69.9438C123.929 69.5704 123.732 69.1544 123.604 68.6958C123.486 68.2371 123.417 67.7731 123.396 67.3038C123.385 67.1438 123.38 66.9944 123.38 66.8558C123.38 66.7171 123.385 66.5678 123.396 66.4078C123.417 65.9384 123.486 65.4744 123.604 65.0158C123.732 64.5571 123.929 64.1411 124.196 63.7678C124.462 63.3944 124.809 63.0958 125.236 62.8718C125.673 62.6478 126.201 62.5358 126.82 62.5358C127.481 62.5358 128.025 62.6584 128.452 62.9038C128.889 63.1491 129.241 63.4478 129.508 63.7998V60.0078C129.508 59.9011 129.54 59.8158 129.604 59.7518C129.668 59.6878 129.753 59.6558 129.86 59.6558H130.132C130.238 59.6558 130.324 59.6878 130.388 59.7518C130.452 59.8158 130.484 59.9011 130.484 60.0078V70.6638C130.484 70.7704 130.452 70.8558 130.388 70.9198C130.324 70.9838 130.238 71.0158 130.132 71.0158H129.86C129.753 71.0158 129.668 70.9838 129.604 70.9198C129.54 70.8558 129.508 70.7704 129.508 70.6638V69.9118C129.241 70.2744 128.889 70.5784 128.452 70.8238C128.025 71.0584 127.481 71.1758 126.82 71.1758ZM126.916 70.2478C127.524 70.2478 128.014 70.1038 128.388 69.8158C128.761 69.5278 129.038 69.1704 129.22 68.7438C129.401 68.3064 129.497 67.8691 129.508 67.4318C129.518 67.2718 129.524 67.0638 129.524 66.8078C129.524 66.5518 129.518 66.3438 129.508 66.1838C129.497 65.7571 129.396 65.3358 129.204 64.9198C129.022 64.5038 128.745 64.1571 128.372 63.8798C127.998 63.6024 127.513 63.4638 126.916 63.4638C126.297 63.4638 125.801 63.6024 125.428 63.8798C125.065 64.1571 124.804 64.5198 124.644 64.9678C124.484 65.4158 124.393 65.8958 124.372 66.4078C124.361 66.7064 124.361 67.0051 124.372 67.3038C124.393 67.8158 124.484 68.2958 124.644 68.7438C124.804 69.1918 125.065 69.5544 125.428 69.8318C125.801 70.1091 126.297 70.2478 126.916 70.2478Z" fill="#1E1E1E"/>
<path d="M136.181 71.1758C135.146 71.1758 134.325 70.8398 133.717 70.1678C133.109 69.4851 132.762 68.5944 132.677 67.4958C132.666 67.3358 132.661 67.1224 132.661 66.8558C132.661 66.5891 132.666 66.3758 132.677 66.2158C132.73 65.4904 132.901 64.8504 133.189 64.2958C133.477 63.7411 133.872 63.3091 134.373 62.9998C134.885 62.6904 135.488 62.5358 136.181 62.5358C136.928 62.5358 137.562 62.7011 138.085 63.0318C138.608 63.3624 139.008 63.8371 139.285 64.4558C139.573 65.0744 139.717 65.8104 139.717 66.6638V66.9038C139.717 67.0104 139.68 67.0958 139.605 67.1598C139.541 67.2238 139.456 67.2558 139.349 67.2558H133.653C133.653 67.2558 133.653 67.2771 133.653 67.3198C133.653 67.3624 133.653 67.3944 133.653 67.4158C133.674 67.8958 133.786 68.3544 133.989 68.7918C134.192 69.2184 134.48 69.5704 134.853 69.8478C135.226 70.1144 135.669 70.2478 136.181 70.2478C136.64 70.2478 137.018 70.1784 137.317 70.0398C137.626 69.9011 137.872 69.7518 138.053 69.5918C138.234 69.4211 138.352 69.2931 138.405 69.2078C138.501 69.0691 138.576 68.9891 138.629 68.9678C138.682 68.9358 138.768 68.9198 138.885 68.9198H139.141C139.237 68.9198 139.317 68.9518 139.381 69.0158C139.456 69.0691 139.488 69.1438 139.477 69.2398C139.466 69.3891 139.381 69.5758 139.221 69.7998C139.072 70.0131 138.853 70.2264 138.565 70.4398C138.288 70.6531 137.946 70.8291 137.541 70.9678C137.136 71.1064 136.682 71.1758 136.181 71.1758ZM133.653 66.3598H138.741V66.2958C138.741 65.7624 138.64 65.2824 138.437 64.8558C138.234 64.4291 137.941 64.0931 137.557 63.8478C137.173 63.5918 136.714 63.4638 136.181 63.4638C135.648 63.4638 135.189 63.5918 134.805 63.8478C134.432 64.0931 134.144 64.4291 133.941 64.8558C133.749 65.2824 133.653 65.7624 133.653 66.2958V66.3598Z" fill="#1E1E1E"/>
<path d="M148.632 71.1758C147.971 71.1758 147.422 71.0584 146.984 70.8238C146.558 70.5784 146.211 70.2744 145.944 69.9118V70.6638C145.944 70.7704 145.912 70.8558 145.848 70.9198C145.784 70.9838 145.699 71.0158 145.592 71.0158H145.32C145.214 71.0158 145.128 70.9838 145.064 70.9198C145 70.8558 144.968 70.7704 144.968 70.6638V60.0078C144.968 59.9011 145 59.8158 145.064 59.7518C145.128 59.6878 145.214 59.6558 145.32 59.6558H145.592C145.699 59.6558 145.784 59.6878 145.848 59.7518C145.912 59.8158 145.944 59.9011 145.944 60.0078V63.7998C146.211 63.4478 146.558 63.1491 146.984 62.9038C147.422 62.6584 147.971 62.5358 148.632 62.5358C149.262 62.5358 149.79 62.6478 150.216 62.8718C150.643 63.0958 150.99 63.3944 151.256 63.7678C151.523 64.1411 151.72 64.5571 151.848 65.0158C151.976 65.4744 152.046 65.9384 152.056 66.4078C152.067 66.5678 152.072 66.7171 152.072 66.8558C152.072 66.9944 152.067 67.1438 152.056 67.3038C152.046 67.7731 151.976 68.2371 151.848 68.6958C151.72 69.1544 151.523 69.5704 151.256 69.9438C150.99 70.3171 150.643 70.6158 150.216 70.8398C149.79 71.0638 149.262 71.1758 148.632 71.1758ZM148.536 70.2478C149.166 70.2478 149.662 70.1091 150.024 69.8318C150.387 69.5544 150.648 69.1918 150.808 68.7438C150.968 68.2958 151.059 67.8158 151.08 67.3038C151.091 67.0051 151.091 66.7064 151.08 66.4078C151.059 65.8958 150.968 65.4158 150.808 64.9678C150.648 64.5198 150.387 64.1571 150.024 63.8798C149.662 63.6024 149.166 63.4638 148.536 63.4638C147.95 63.4638 147.464 63.6024 147.08 63.8798C146.707 64.1571 146.424 64.5038 146.232 64.9198C146.051 65.3358 145.955 65.7571 145.944 66.1838C145.934 66.3438 145.928 66.5518 145.928 66.8078C145.928 67.0638 145.934 67.2718 145.944 67.4318C145.966 67.8691 146.062 68.3064 146.232 68.7438C146.414 69.1704 146.691 69.5278 147.064 69.8158C147.438 70.1038 147.928 70.2478 148.536 70.2478Z" fill="#1E1E1E"/>
<path d="M157.321 71.1758C156.287 71.1758 155.465 70.8398 154.857 70.1678C154.249 69.4851 153.903 68.5944 153.817 67.4958C153.807 67.3358 153.801 67.1224 153.801 66.8558C153.801 66.5891 153.807 66.3758 153.817 66.2158C153.871 65.4904 154.041 64.8504 154.329 64.2958C154.617 63.7411 155.012 63.3091 155.513 62.9998C156.025 62.6904 156.628 62.5358 157.321 62.5358C158.068 62.5358 158.703 62.7011 159.225 63.0318C159.748 63.3624 160.148 63.8371 160.425 64.4558C160.713 65.0744 160.857 65.8104 160.857 66.6638V66.9038C160.857 67.0104 160.82 67.0958 160.745 67.1598C160.681 67.2238 160.596 67.2558 160.489 67.2558H154.793C154.793 67.2558 154.793 67.2771 154.793 67.3198C154.793 67.3624 154.793 67.3944 154.793 67.4158C154.815 67.8958 154.927 68.3544 155.129 68.7918C155.332 69.2184 155.62 69.5704 155.993 69.8478C156.367 70.1144 156.809 70.2478 157.321 70.2478C157.78 70.2478 158.159 70.1784 158.457 70.0398C158.767 69.9011 159.012 69.7518 159.193 69.5918C159.375 69.4211 159.492 69.2931 159.545 69.2078C159.641 69.0691 159.716 68.9891 159.769 68.9678C159.823 68.9358 159.908 68.9198 160.025 68.9198H160.281C160.377 68.9198 160.457 68.9518 160.521 69.0158C160.596 69.0691 160.628 69.1438 160.617 69.2398C160.607 69.3891 160.521 69.5758 160.361 69.7998C160.212 70.0131 159.993 70.2264 159.705 70.4398C159.428 70.6531 159.087 70.8291 158.681 70.9678C158.276 71.1064 157.823 71.1758 157.321 71.1758ZM154.793 66.3598H159.881V66.2958C159.881 65.7624 159.78 65.2824 159.577 64.8558C159.375 64.4291 159.081 64.0931 158.697 63.8478C158.313 63.5918 157.855 63.4638 157.321 63.4638C156.788 63.4638 156.329 63.5918 155.945 63.8478C155.572 64.0931 155.284 64.4291 155.081 64.8558C154.889 65.2824 154.793 65.7624 154.793 66.2958V66.3598Z" fill="#1E1E1E"/>
<path d="M163.32 71.0158C163.213 71.0158 163.128 70.9838 163.064 70.9198C163 70.8558 162.968 70.7704 162.968 70.6638V63.0478C162.968 62.9411 163 62.8558 163.064 62.7918C163.128 62.7278 163.213 62.6958 163.32 62.6958H163.592C163.699 62.6958 163.784 62.7278 163.848 62.7918C163.912 62.8558 163.944 62.9411 163.944 63.0478V63.7998C164.232 63.4264 164.579 63.1224 164.984 62.8878C165.4 62.6531 165.949 62.5358 166.632 62.5358C167.357 62.5358 167.96 62.6958 168.44 63.0158C168.931 63.3251 169.293 63.7518 169.528 64.2958C169.773 64.8291 169.896 65.4371 169.896 66.1198V70.6638C169.896 70.7704 169.864 70.8558 169.8 70.9198C169.736 70.9838 169.651 71.0158 169.544 71.0158H169.272C169.165 71.0158 169.08 70.9838 169.016 70.9198C168.952 70.8558 168.92 70.7704 168.92 70.6638V66.1998C168.92 65.3464 168.712 64.6798 168.296 64.1998C167.88 63.7091 167.272 63.4638 166.472 63.4638C165.715 63.4638 165.101 63.7091 164.632 64.1998C164.173 64.6798 163.944 65.3464 163.944 66.1998V70.6638C163.944 70.7704 163.912 70.8558 163.848 70.9198C163.784 70.9838 163.699 71.0158 163.592 71.0158H163.32Z" fill="#1E1E1E"/>
<path d="M175.493 71.1758C174.459 71.1758 173.637 70.8398 173.029 70.1678C172.421 69.4851 172.075 68.5944 171.989 67.4958C171.979 67.3358 171.973 67.1224 171.973 66.8558C171.973 66.5891 171.979 66.3758 171.989 66.2158C172.043 65.4904 172.213 64.8504 172.501 64.2958C172.789 63.7411 173.184 63.3091 173.685 62.9998C174.197 62.6904 174.8 62.5358 175.493 62.5358C176.24 62.5358 176.875 62.7011 177.397 63.0318C177.92 63.3624 178.32 63.8371 178.597 64.4558C178.885 65.0744 179.029 65.8104 179.029 66.6638V66.9038C179.029 67.0104 178.992 67.0958 178.917 67.1598C178.853 67.2238 178.768 67.2558 178.661 67.2558H172.965C172.965 67.2558 172.965 67.2771 172.965 67.3198C172.965 67.3624 172.965 67.3944 172.965 67.4158C172.987 67.8958 173.099 68.3544 173.301 68.7918C173.504 69.2184 173.792 69.5704 174.165 69.8478C174.539 70.1144 174.981 70.2478 175.493 70.2478C175.952 70.2478 176.331 70.1784 176.629 70.0398C176.939 69.9011 177.184 69.7518 177.365 69.5918C177.547 69.4211 177.664 69.2931 177.717 69.2078C177.813 69.0691 177.888 68.9891 177.941 68.9678C177.995 68.9358 178.08 68.9198 178.197 68.9198H178.453C178.549 68.9198 178.629 68.9518 178.693 69.0158C178.768 69.0691 178.8 69.1438 178.789 69.2398C178.779 69.3891 178.693 69.5758 178.533 69.7998C178.384 70.0131 178.165 70.2264 177.877 70.4398C177.6 70.6531 177.259 70.8291 176.853 70.9678C176.448 71.1064 175.995 71.1758 175.493 71.1758ZM172.965 66.3598H178.053V66.2958C178.053 65.7624 177.952 65.2824 177.749 64.8558C177.547 64.4291 177.253 64.0931 176.869 63.8478C176.485 63.5918 176.027 63.4638 175.493 63.4638C174.96 63.4638 174.501 63.5918 174.117 63.8478C173.744 64.0931 173.456 64.4291 173.253 64.8558C173.061 65.2824 172.965 65.7624 172.965 66.2958V66.3598Z" fill="#1E1E1E"/>
<path d="M182.198 71.0158C182.091 71.0158 182.006 70.9838 181.942 70.9198C181.878 70.8558 181.846 70.7704 181.846 70.6638V63.6238H180.422C180.315 63.6238 180.23 63.5918 180.166 63.5278C180.102 63.4638 180.07 63.3784 180.07 63.2718V63.0478C180.07 62.9411 180.102 62.8558 180.166 62.7918C180.23 62.7278 180.315 62.6958 180.422 62.6958H181.846V61.7838C181.846 61.3038 181.91 60.8664 182.038 60.4718C182.176 60.0771 182.416 59.7624 182.758 59.5278C183.11 59.2931 183.611 59.1758 184.262 59.1758H185.094C185.2 59.1758 185.286 59.2078 185.35 59.2718C185.414 59.3358 185.446 59.4211 185.446 59.5278V59.7518C185.446 59.8584 185.414 59.9438 185.35 60.0078C185.286 60.0718 185.2 60.1038 185.094 60.1038H184.262C183.696 60.1038 183.312 60.2584 183.11 60.5678C182.918 60.8664 182.822 61.2984 182.822 61.8638V62.6958H184.934C185.04 62.6958 185.126 62.7278 185.19 62.7918C185.254 62.8558 185.286 62.9411 185.286 63.0478V63.2718C185.286 63.3784 185.254 63.4638 185.19 63.5278C185.126 63.5918 185.04 63.6238 184.934 63.6238H182.822V70.6638C182.822 70.7704 182.79 70.8558 182.726 70.9198C182.662 70.9838 182.576 71.0158 182.47 71.0158H182.198Z" fill="#1E1E1E"/>
<path d="M187.101 71.0158C186.994 71.0158 186.909 70.9838 186.845 70.9198C186.781 70.8558 186.749 70.7704 186.749 70.6638V63.0478C186.749 62.9411 186.781 62.8558 186.845 62.7918C186.909 62.7278 186.994 62.6958 187.101 62.6958H187.373C187.48 62.6958 187.565 62.7278 187.629 62.7918C187.693 62.8558 187.725 62.9411 187.725 63.0478V70.6638C187.725 70.7704 187.693 70.8558 187.629 70.9198C187.565 70.9838 187.48 71.0158 187.373 71.0158H187.101ZM187.021 61.4958C186.85 61.4958 186.765 61.4104 186.765 61.2398C186.765 61.1544 186.792 61.0851 186.845 61.0318L187.949 59.7038C188.034 59.5971 188.114 59.5224 188.189 59.4798C188.264 59.4371 188.381 59.4158 188.541 59.4158H189.197C189.4 59.4158 189.501 59.5171 189.501 59.7198C189.501 59.7944 189.474 59.8584 189.421 59.9118L187.677 61.3358C187.592 61.4104 187.512 61.4584 187.437 61.4798C187.373 61.4904 187.288 61.4958 187.181 61.4958H187.021Z" fill="#1E1E1E"/>
<path d="M193.464 71.1758C192.717 71.1758 192.082 71.0318 191.56 70.7438C191.037 70.4451 190.637 70.0184 190.36 69.4638C190.093 68.9091 189.949 68.2531 189.928 67.4958C189.917 67.3358 189.912 67.1224 189.912 66.8558C189.912 66.5891 189.917 66.3758 189.928 66.2158C189.949 65.4478 190.093 64.7918 190.36 64.2478C190.637 63.6931 191.037 63.2718 191.56 62.9838C192.082 62.6851 192.717 62.5358 193.464 62.5358C194.029 62.5358 194.514 62.6158 194.92 62.7758C195.336 62.9251 195.677 63.1278 195.944 63.3838C196.21 63.6291 196.413 63.9011 196.552 64.1998C196.69 64.4984 196.765 64.7918 196.776 65.0798C196.786 65.1864 196.754 65.2718 196.68 65.3358C196.605 65.3998 196.52 65.4318 196.424 65.4318H196.2C196.093 65.4318 196.013 65.4104 195.96 65.3678C195.917 65.3144 195.869 65.2238 195.816 65.0958C195.592 64.4878 195.282 64.0664 194.888 63.8318C194.504 63.5864 194.029 63.4638 193.464 63.4638C192.738 63.4638 192.136 63.6878 191.656 64.1358C191.186 64.5731 190.936 65.2931 190.904 66.2958C190.882 66.6691 190.882 67.0424 190.904 67.4158C190.936 68.4184 191.186 69.1438 191.656 69.5918C192.136 70.0291 192.738 70.2478 193.464 70.2478C194.029 70.2478 194.504 70.1304 194.888 69.8958C195.282 69.6504 195.592 69.2238 195.816 68.6158C195.869 68.4878 195.917 68.4024 195.96 68.3598C196.013 68.3064 196.093 68.2798 196.2 68.2798H196.424C196.52 68.2798 196.605 68.3118 196.68 68.3758C196.754 68.4398 196.786 68.5251 196.776 68.6318C196.765 68.8664 196.717 69.1011 196.632 69.3358C196.546 69.5704 196.413 69.7998 196.232 70.0238C196.061 70.2478 195.848 70.4451 195.592 70.6158C195.336 70.7865 195.026 70.9198 194.664 71.0158C194.312 71.1224 193.912 71.1758 193.464 71.1758Z" fill="#1E1E1E"/>
<path d="M199.242 71.0158C199.135 71.0158 199.05 70.9838 198.986 70.9198C198.922 70.8558 198.89 70.7704 198.89 70.6638V63.0478C198.89 62.9411 198.922 62.8558 198.986 62.7918C199.05 62.7278 199.135 62.6958 199.242 62.6958H199.514C199.62 62.6958 199.706 62.7278 199.77 62.7918C199.834 62.8558 199.866 62.9411 199.866 63.0478V70.6638C199.866 70.7704 199.834 70.8558 199.77 70.9198C199.706 70.9838 199.62 71.0158 199.514 71.0158H199.242ZM199.066 60.9838C198.959 60.9838 198.874 60.9518 198.81 60.8878C198.746 60.8238 198.714 60.7384 198.714 60.6318V60.0238C198.714 59.9171 198.746 59.8318 198.81 59.7678C198.874 59.6931 198.959 59.6558 199.066 59.6558H199.674C199.78 59.6558 199.866 59.6931 199.93 59.7678C200.004 59.8318 200.042 59.9171 200.042 60.0238V60.6318C200.042 60.7384 200.004 60.8238 199.93 60.8878C199.866 60.9518 199.78 60.9838 199.674 60.9838H199.066Z" fill="#1E1E1E"/>
<path d="M205.62 71.1758C204.852 71.1758 204.207 71.0158 203.684 70.6958C203.172 70.3758 202.778 69.9384 202.5 69.3838C202.234 68.8291 202.09 68.2104 202.068 67.5278C202.058 67.3678 202.052 67.1438 202.052 66.8558C202.052 66.5678 202.058 66.3438 202.068 66.1838C202.09 65.4904 202.234 64.8718 202.5 64.3278C202.778 63.7731 203.172 63.3358 203.684 63.0158C204.207 62.6958 204.852 62.5358 205.62 62.5358C206.388 62.5358 207.028 62.6958 207.54 63.0158C208.063 63.3358 208.458 63.7731 208.724 64.3278C209.002 64.8718 209.151 65.4904 209.172 66.1838C209.183 66.3438 209.188 66.5678 209.188 66.8558C209.188 67.1438 209.183 67.3678 209.172 67.5278C209.151 68.2104 209.002 68.8291 208.724 69.3838C208.458 69.9384 208.063 70.3758 207.54 70.6958C207.028 71.0158 206.388 71.1758 205.62 71.1758ZM205.62 70.2478C206.367 70.2478 206.975 70.0078 207.444 69.5278C207.914 69.0478 208.164 68.3544 208.196 67.4478C208.207 67.2878 208.212 67.0904 208.212 66.8558C208.212 66.6211 208.207 66.4238 208.196 66.2638C208.164 65.3464 207.914 64.6531 207.444 64.1838C206.975 63.7038 206.367 63.4638 205.62 63.4638C204.874 63.4638 204.266 63.7038 203.796 64.1838C203.327 64.6531 203.076 65.3464 203.044 66.2638C203.034 66.4238 203.028 66.6211 203.028 66.8558C203.028 67.0904 203.034 67.2878 203.044 67.4478C203.076 68.3544 203.327 69.0478 203.796 69.5278C204.266 70.0078 204.874 70.2478 205.62 70.2478Z" fill="#1E1E1E"/>
<path d="M214.014 71.1758C213.459 71.1758 212.979 71.1011 212.574 70.9518C212.179 70.8024 211.854 70.6264 211.598 70.4238C211.342 70.2104 211.15 70.0024 211.022 69.7998C210.905 69.5971 210.841 69.4424 210.83 69.3358C210.819 69.2184 210.857 69.1331 210.942 69.0798C211.027 69.0158 211.107 68.9838 211.182 68.9838H211.422C211.486 68.9838 211.539 68.9944 211.582 69.0158C211.635 69.0371 211.699 69.0958 211.774 69.1918C211.913 69.3731 212.073 69.5491 212.254 69.7198C212.435 69.8798 212.665 70.0078 212.942 70.1038C213.23 70.1998 213.587 70.2478 214.014 70.2478C214.654 70.2478 215.182 70.1251 215.598 69.8798C216.014 69.6345 216.222 69.2718 216.222 68.7918C216.222 68.4931 216.137 68.2531 215.966 68.0718C215.806 67.8904 215.529 67.7304 215.134 67.5918C214.739 67.4531 214.206 67.3091 213.534 67.1598C212.862 66.9998 212.345 66.8078 211.982 66.5838C211.63 66.3598 211.39 66.1038 211.262 65.8158C211.134 65.5171 211.07 65.1971 211.07 64.8558C211.07 64.4824 211.177 64.1198 211.39 63.7678C211.603 63.4051 211.918 63.1118 212.334 62.8878C212.761 62.6531 213.294 62.5358 213.934 62.5358C214.457 62.5358 214.899 62.6051 215.262 62.7438C215.635 62.8824 215.939 63.0531 216.174 63.2558C216.409 63.4478 216.579 63.6398 216.686 63.8318C216.803 64.0238 216.867 64.1784 216.878 64.2958C216.889 64.4024 216.857 64.4878 216.782 64.5518C216.707 64.6158 216.622 64.6478 216.526 64.6478H216.286C216.201 64.6478 216.131 64.6318 216.078 64.5998C216.025 64.5571 215.977 64.5038 215.934 64.4398C215.827 64.2691 215.699 64.1091 215.55 63.9598C215.401 63.8104 215.198 63.6931 214.942 63.6078C214.697 63.5118 214.361 63.4638 213.934 63.4638C213.294 63.4638 212.819 63.5971 212.51 63.8638C212.201 64.1198 212.046 64.4504 212.046 64.8558C212.046 65.0904 212.11 65.2984 212.238 65.4798C212.366 65.6504 212.606 65.8104 212.958 65.9598C213.31 66.0984 213.822 66.2478 214.494 66.4078C215.177 66.5571 215.715 66.7438 216.11 66.9678C216.505 67.1811 216.782 67.4371 216.942 67.7358C217.113 68.0344 217.198 68.3864 217.198 68.7918C217.198 69.2184 217.075 69.6131 216.83 69.9758C216.595 70.3384 216.238 70.6318 215.758 70.8558C215.289 71.0691 214.707 71.1758 214.014 71.1758Z" fill="#1E1E1E"/>
</svg>
