<svg width="175" height="40" viewBox="0 0 175 40" fill="none" xmlns="http://www.w3.org/2000/svg">
<path d="M41.3799 25.9746C41.3799 26.681 41.2537 27.347 41.0015 27.9727C40.7492 28.5983 40.401 29.1483 39.957 29.6226C39.513 30.0968 38.9883 30.4854 38.3828 30.7881C37.7874 31.0807 37.1466 31.2523 36.4604 31.3027L38.4434 35.7681H36.4907L34.5078 31.3027C33.7712 31.3027 33.0749 31.1665 32.4189 30.894C31.7731 30.6115 31.208 30.228 30.7236 29.7437C30.2393 29.2593 29.8558 28.6942 29.5732 28.0483C29.3008 27.4025 29.1646 26.7113 29.1646 25.9746V14.3193C29.1646 13.5827 29.3008 12.8914 29.5732 12.2456C29.8558 11.5998 30.2393 11.0347 30.7236 10.5503C31.208 10.0659 31.7731 9.6875 32.4189 9.41504C33.0749 9.13249 33.7712 8.99121 34.5078 8.99121H36.0518C36.7884 8.99121 37.4797 9.13249 38.1255 9.41504C38.7713 9.6875 39.3364 10.0659 39.8208 10.5503C40.3052 11.0347 40.6836 11.5998 40.9561 12.2456C41.2386 12.8914 41.3799 13.5827 41.3799 14.3193V25.9746ZM39.4272 14.3193C39.4272 13.835 39.3364 13.3859 39.1548 12.9722C38.9731 12.5483 38.7259 12.18 38.4131 11.8672C38.1003 11.5544 37.7319 11.3071 37.3081 11.1255C36.8944 10.9438 36.4453 10.853 35.9609 10.853H34.5986C34.1143 10.853 33.6602 10.9438 33.2363 11.1255C32.8226 11.3071 32.4543 11.5544 32.1313 11.8672C31.8185 12.18 31.5713 12.5483 31.3896 12.9722C31.208 13.3859 31.1172 13.835 31.1172 14.3193V25.9746C31.1172 26.459 31.208 26.9131 31.3896 27.3369C31.5713 27.7507 31.8185 28.119 32.1313 28.4419C32.4543 28.7547 32.8226 29.002 33.2363 29.1836C33.6602 29.3652 34.1143 29.4561 34.5986 29.4561H35.9609C36.4453 29.4561 36.8944 29.3652 37.3081 29.1836C37.7319 29.002 38.1003 28.7547 38.4131 28.4419C38.7259 28.119 38.9731 27.7507 39.1548 27.3369C39.3364 26.9131 39.4272 26.459 39.4272 25.9746V14.3193ZM55.1543 31L54.125 29.4258C53.7012 30.001 53.1714 30.4601 52.5356 30.8032C51.8999 31.1362 51.2036 31.3027 50.4468 31.3027H49.9775C49.3519 31.3027 48.7616 31.1867 48.2065 30.9546C47.6515 30.7124 47.1672 30.3844 46.7534 29.9707C46.3397 29.557 46.0117 29.0726 45.7695 28.5176C45.5374 27.9626 45.4214 27.3722 45.4214 26.7466V15.5H47.2832V26.8525C47.2832 27.2259 47.3538 27.5791 47.4951 27.9121C47.6364 28.235 47.8281 28.5176 48.0703 28.7598C48.3125 29.002 48.5951 29.1937 48.918 29.335C49.251 29.4762 49.6042 29.5469 49.9775 29.5469H51.2188C51.5921 29.5469 51.9403 29.4762 52.2632 29.335C52.5962 29.1937 52.8838 29.002 53.126 28.7598C53.3682 28.5176 53.5599 28.235 53.7012 27.9121C53.8424 27.5791 53.9131 27.2259 53.9131 26.8525V15.5H55.7749V31H55.1543ZM59.9678 11.7764V9.29395H62.1323V11.7764H59.9678ZM60.1191 31V15.5H61.981V31H60.1191ZM76.6938 26.7466C76.6938 27.3722 76.5728 27.9626 76.3306 28.5176C76.0985 29.0726 75.7756 29.557 75.3618 29.9707C74.9481 30.3844 74.4637 30.7124 73.9087 30.9546C73.3537 31.1867 72.7633 31.3027 72.1377 31.3027H70.8965C70.2708 31.3027 69.6805 31.1867 69.1255 30.9546C68.5705 30.7124 68.0861 30.3844 67.6724 29.9707C67.2586 29.557 66.9307 29.0726 66.6885 28.5176C66.4564 27.9626 66.3403 27.3722 66.3403 26.7466V19.7534C66.3403 19.1278 66.4564 18.5374 66.6885 17.9824C66.9307 17.4274 67.2586 16.943 67.6724 16.5293C68.0861 16.1156 68.5705 15.7926 69.1255 15.5605C69.6805 15.3184 70.2708 15.1973 70.8965 15.1973H72.1377C72.7633 15.1973 73.3537 15.3184 73.9087 15.5605C74.4637 15.7926 74.9481 16.1156 75.3618 16.5293C75.7756 16.943 76.0985 17.4274 76.3306 17.9824C76.5728 18.5374 76.6938 19.1278 76.6938 19.7534V20.374L74.832 20.6768V19.6475C74.832 19.2741 74.7614 18.9259 74.6201 18.603C74.4788 18.27 74.2871 17.9824 74.0449 17.7402C73.8027 17.498 73.5151 17.3063 73.1821 17.165C72.8592 17.0238 72.5111 16.9531 72.1377 16.9531H70.8965C70.5231 16.9531 70.1699 17.0238 69.8369 17.165C69.514 17.3063 69.2314 17.498 68.9893 17.7402C68.7471 17.9824 68.5553 18.27 68.4141 18.603C68.2728 18.9259 68.2021 19.2741 68.2021 19.6475V26.8525C68.2021 27.2259 68.2728 27.5791 68.4141 27.9121C68.5553 28.235 68.7471 28.5176 68.9893 28.7598C69.2314 29.002 69.514 29.1937 69.8369 29.335C70.1699 29.4762 70.5231 29.5469 70.8965 29.5469H72.1377C72.5111 29.5469 72.8592 29.4762 73.1821 29.335C73.5151 29.1937 73.8027 29.002 74.0449 28.7598C74.2871 28.5176 74.4788 28.235 74.6201 27.9121C74.7614 27.5791 74.832 27.2259 74.832 26.8525V25.8232L76.6938 26.126V26.7466ZM89.2876 31L82.9604 23.25L89.2876 15.5H91.7095L85.231 23.25L91.7095 31H89.2876ZM80.7354 31V9.29395H82.5972V31H80.7354ZM119.879 31L118.85 29.4258C118.426 30.001 117.896 30.4601 117.26 30.8032C116.625 31.1362 115.928 31.3027 115.171 31.3027H114.702C114.076 31.3027 113.486 31.1867 112.931 30.9546C112.376 30.7124 111.892 30.3844 111.478 29.9707C111.064 29.557 110.736 29.0726 110.494 28.5176C110.262 27.9626 110.146 27.3722 110.146 26.7466V15.5H112.008V26.8525C112.008 27.2259 112.078 27.5791 112.22 27.9121C112.361 28.235 112.553 28.5176 112.795 28.7598C113.037 29.002 113.32 29.1937 113.643 29.335C113.976 29.4762 114.329 29.5469 114.702 29.5469H115.943C116.317 29.5469 116.665 29.4762 116.988 29.335C117.321 29.1937 117.608 29.002 117.851 28.7598C118.093 28.5176 118.285 28.235 118.426 27.9121C118.567 27.5791 118.638 27.2259 118.638 26.8525V15.5H120.5V31H119.879ZM124.692 11.7764V9.29395H126.857V11.7764H124.692ZM124.844 31V15.5H126.706V31H124.844ZM131.686 31V9.29395H133.547V31H131.686ZM147.64 31L146.61 29.4258C146.187 30.001 145.657 30.4601 145.021 30.8032C144.385 31.1362 143.689 31.3027 142.932 31.3027H142.463C141.837 31.3027 141.247 31.1867 140.692 30.9546C140.137 30.7124 139.653 30.3844 139.239 29.9707C138.825 29.557 138.497 29.0726 138.255 28.5176C138.023 27.9626 137.907 27.3722 137.907 26.7466V19.7534C137.907 19.1278 138.023 18.5374 138.255 17.9824C138.497 17.4274 138.825 16.943 139.239 16.5293C139.653 16.1156 140.137 15.7926 140.692 15.5605C141.247 15.3184 141.837 15.1973 142.463 15.1973H142.932C143.628 15.1973 144.274 15.3385 144.87 15.6211C145.465 15.9036 145.975 16.2972 146.398 16.8018V9.29395H148.26V31H147.64ZM146.398 19.6475C146.398 19.2741 146.328 18.9259 146.187 18.603C146.045 18.27 145.854 17.9824 145.611 17.7402C145.369 17.498 145.082 17.3063 144.749 17.165C144.426 17.0238 144.077 16.9531 143.704 16.9531H142.463C142.09 16.9531 141.736 17.0238 141.403 17.165C141.08 17.3063 140.798 17.498 140.556 17.7402C140.313 17.9824 140.122 18.27 139.98 18.603C139.839 18.9259 139.769 19.2741 139.769 19.6475V26.8525C139.769 27.2259 139.839 27.5791 139.98 27.9121C140.122 28.235 140.313 28.5176 140.556 28.7598C140.798 29.002 141.08 29.1937 141.403 29.335C141.736 29.4762 142.09 29.5469 142.463 29.5469H143.704C144.077 29.5469 144.426 29.4762 144.749 29.335C145.082 29.1937 145.369 29.002 145.611 28.7598C145.854 28.5176 146.045 28.235 146.187 27.9121C146.328 27.5791 146.398 27.2259 146.398 26.8525V19.6475ZM162.337 26.7466C162.337 27.3722 162.216 27.9626 161.974 28.5176C161.742 29.0726 161.419 29.557 161.005 29.9707C160.592 30.3844 160.107 30.7124 159.552 30.9546C158.997 31.1867 158.407 31.3027 157.781 31.3027H156.54C155.914 31.3027 155.324 31.1867 154.769 30.9546C154.214 30.7124 153.73 30.3844 153.316 29.9707C152.902 29.557 152.574 29.0726 152.332 28.5176C152.1 27.9626 151.984 27.3722 151.984 26.7466V19.7534C151.984 19.1278 152.1 18.5374 152.332 17.9824C152.574 17.4274 152.902 16.943 153.316 16.5293C153.73 16.1156 154.214 15.7926 154.769 15.5605C155.324 15.3184 155.914 15.1973 156.54 15.1973H157.781C158.407 15.1973 158.997 15.3184 159.552 15.5605C160.107 15.7926 160.592 16.1156 161.005 16.5293C161.419 16.943 161.742 17.4274 161.974 17.9824C162.216 18.5374 162.337 19.1278 162.337 19.7534V23.4014H153.846V26.8525C153.846 27.2259 153.916 27.5791 154.058 27.9121C154.199 28.235 154.391 28.5176 154.633 28.7598C154.875 29.002 155.158 29.1937 155.48 29.335C155.813 29.4762 156.167 29.5469 156.54 29.5469H157.781C158.155 29.5469 158.503 29.4762 158.826 29.335C159.159 29.1937 159.446 29.002 159.688 28.7598C159.931 28.5176 160.122 28.235 160.264 27.9121C160.405 27.5791 160.476 27.2259 160.476 26.8525V25.8232L162.337 26.126V26.7466ZM160.476 19.6475C160.476 19.2741 160.405 18.9259 160.264 18.603C160.122 18.27 159.931 17.9824 159.688 17.7402C159.446 17.498 159.159 17.3063 158.826 17.165C158.503 17.0238 158.155 16.9531 157.781 16.9531H156.54C156.167 16.9531 155.813 17.0238 155.48 17.165C155.158 17.3063 154.875 17.498 154.633 17.7402C154.391 17.9824 154.199 18.27 154.058 18.603C153.916 18.9259 153.846 19.2741 153.846 19.6475V21.9482H160.476V19.6475ZM170.617 17.271C170.244 17.271 169.891 17.3416 169.558 17.4829C169.235 17.6242 168.952 17.8159 168.71 18.0581C168.468 18.3003 168.276 18.5879 168.135 18.9209C167.993 19.2438 167.923 19.592 167.923 19.9653V31H166.061V15.5H166.682L167.696 17.0742C168.12 16.499 168.649 16.0449 169.285 15.7119C169.931 15.3688 170.632 15.1973 171.389 15.1973H172.479V17.271H170.617Z" fill="#181717"/>
<path d="M107.028 25.6719C107.028 26.4085 106.887 27.0998 106.604 27.7456C106.332 28.3914 105.953 28.9565 105.469 29.4409C104.984 29.9253 104.414 30.3088 103.758 30.5913C103.112 30.8638 102.421 31 101.685 31H94.8125V9.29395H101.685C102.421 9.29395 103.112 9.43522 103.758 9.71777C104.414 9.99023 104.984 10.3687 105.469 10.853C105.953 11.3374 106.332 11.9076 106.604 12.5635C106.887 13.2093 107.028 13.9006 107.028 14.6372V14.8491C107.028 15.3638 106.957 15.8582 106.816 16.3325C106.685 16.7967 106.493 17.2306 106.241 17.6343C105.988 18.0379 105.691 18.4062 105.348 18.7393C105.005 19.0622 104.621 19.3346 104.197 19.5566C104.621 19.7786 105.005 20.0562 105.348 20.3892C105.691 20.7121 105.988 21.0804 106.241 21.4941C106.493 21.8978 106.685 22.3368 106.816 22.811C106.957 23.2752 107.028 23.7646 107.028 24.2793V25.6719ZM105.075 23.9614C105.075 23.4771 104.984 23.028 104.803 22.6143C104.621 22.1904 104.369 21.8221 104.046 21.5093C103.733 21.1965 103.365 20.9492 102.941 20.7676C102.527 20.5859 102.078 20.4951 101.594 20.4951H96.7651V29.1382H101.594C102.078 29.1382 102.527 29.0474 102.941 28.8657C103.365 28.6841 103.733 28.4368 104.046 28.124C104.369 27.8112 104.621 27.4479 104.803 27.0342C104.984 26.6104 105.075 26.1562 105.075 25.6719V23.9614ZM105.075 14.6372C105.075 14.1528 104.984 13.7038 104.803 13.29C104.621 12.8662 104.369 12.4979 104.046 12.1851C103.733 11.8621 103.365 11.6099 102.941 11.4282C102.527 11.2466 102.078 11.1558 101.594 11.1558H96.7651V18.6333H101.594C102.078 18.6333 102.527 18.5425 102.941 18.3608C103.365 18.1792 103.733 17.932 104.046 17.6191C104.369 17.2962 104.621 16.9279 104.803 16.5142C104.984 16.0903 105.075 15.6362 105.075 15.1519V14.6372Z" fill="#098EC2"/>
<path d="M23.9895 13.5388C23.9895 13.5388 23.9895 13.5388 23.9895 13.4265L23.9042 13.216C23.8746 13.1714 23.8413 13.1291 23.8047 13.0897C23.7667 13.0303 23.7239 12.974 23.6768 12.9213L23.5489 12.8231L23.3215 12.7108L12.661 6.21331C12.435 6.07391 12.174 6 11.9076 6C11.6412 6 11.3802 6.07391 11.1543 6.21331L0.579039 12.7108L0.451113 12.8231L0.323186 12.9213C0.276069 12.974 0.233291 13.0303 0.19526 13.0897C0.158718 13.1291 0.125445 13.1714 0.0957621 13.216L0.0104778 13.4265C0.0104778 13.4265 0.0104778 13.4265 0.0104778 13.5388C-0.0034926 13.66 -0.0034926 13.7824 0.0104778 13.9037V26.169C0.00999441 26.4075 0.0710809 26.6421 0.18797 26.8508C0.304859 27.0596 0.473695 27.2354 0.678537 27.3618L11.339 33.8593C11.4047 33.8993 11.4768 33.9278 11.5523 33.9435C11.5523 33.9435 11.6233 33.9435 11.666 33.9435C11.9064 34.0188 12.1646 34.0188 12.4051 33.9435C12.4051 33.9435 12.4762 33.9435 12.5188 33.9435C12.5943 33.9278 12.6664 33.8993 12.732 33.8593L23.3215 27.3618C23.5263 27.2354 23.6951 27.0596 23.812 26.8508C23.9289 26.6421 23.99 26.4075 23.9895 26.169V13.9037C24.0035 13.7824 24.0035 13.66 23.9895 13.5388ZM10.5288 30.1545L2.71114 25.3831V16.4297L10.5288 21.1871V30.1545ZM11.9503 18.7593L3.9904 13.9037L11.9503 9.06211L19.9101 13.9037L11.9503 18.7593ZM21.1894 25.3831L13.3717 30.1545V21.1871L21.1894 16.4297V25.3831Z" fill="#098EC2"/>
</svg>
